<?xml version="1.0" encoding="utf-8"?>
<!-- Generator: Adobe Illustrator 22.1.0, SVG Export Plug-In . SVG Version: 6.00 Build 0)  -->
<svg version="1.1"
	 id="图层_1" xmlns:cc="http://creativecommons.org/ns#" xmlns:dc="http://purl.org/dc/elements/1.1/" xmlns:inkscape="http://www.inkscape.org/namespaces/inkscape" xmlns:rdf="http://www.w3.org/1999/02/22-rdf-syntax-ns#" xmlns:sodipodi="http://sodipodi.sourceforge.net/DTD/sodipodi-0.dtd" xmlns:svg="http://www.w3.org/2000/svg"
	 xmlns="http://www.w3.org/2000/svg" xmlns:xlink="http://www.w3.org/1999/xlink" x="0px" y="0px" viewBox="0 0 100 73.9"
	 style="enable-background:new 0 0 100 73.9;" xml:space="preserve">
<path d="M12,6.6c-3.3,0-6,2.7-6,6v44c0,3.3,2.7,6,6,6h76c3.3,0,6-2.7,6-6v-44c0-3.3-2.7-6-6-6H12z M13,10.6h74L50,43.9L13,10.6z
	 M10,13.3l23.9,21.5L10,55.9V13.3z M90,13.3v42.6L66.1,34.8L90,13.3z M36.9,37.5l11.8,10.6c0.8,0.7,1.9,0.7,2.7,0l11.8-10.6L87,58.6
	H13L36.9,37.5z"/>
</svg>
